<?xml version="1.0" encoding="UTF-8"?>
<svg xmlns="http://www.w3.org/2000/svg" xmlns:xlink="http://www.w3.org/1999/xlink" width="20px" height="20px" viewBox="0 0 20 20" version="1.1">
<g id="surface1">
<path style=" stroke:none;fill-rule:evenodd;fill:rgb(100%,100%,100%);fill-opacity:1;" d="M 10 0 C 4.476562 0 0 4.476562 0 10 C 0 14.425781 2.863281 18.164062 6.835938 19.488281 C 7.335938 19.574219 7.523438 19.273438 7.523438 19.011719 C 7.523438 18.773438 7.511719 17.988281 7.511719 17.148438 C 5 17.613281 4.351562 16.539062 4.148438 15.976562 C 4.039062 15.6875 3.550781 14.800781 3.125 14.5625 C 2.773438 14.375 2.273438 13.914062 3.113281 13.898438 C 3.898438 13.886719 4.460938 14.625 4.648438 14.925781 C 5.550781 16.4375 6.988281 16.011719 7.5625 15.75 C 7.648438 15.101562 7.914062 14.664062 8.199219 14.414062 C 5.976562 14.164062 3.648438 13.300781 3.648438 9.476562 C 3.648438 8.386719 4.039062 7.488281 4.675781 6.789062 C 4.574219 6.539062 4.226562 5.511719 4.773438 4.136719 C 4.773438 4.136719 5.613281 3.875 7.523438 5.164062 C 8.324219 4.9375 9.175781 4.824219 10.023438 4.824219 C 10.875 4.824219 11.726562 4.9375 12.523438 5.164062 C 14.4375 3.863281 15.273438 4.136719 15.273438 4.136719 C 15.824219 5.511719 15.476562 6.539062 15.375 6.789062 C 16.011719 7.488281 16.398438 8.375 16.398438 9.476562 C 16.398438 13.3125 14.0625 14.164062 11.835938 14.414062 C 12.199219 14.726562 12.511719 15.324219 12.511719 16.261719 C 12.511719 17.601562 12.5 18.675781 12.5 19.011719 C 12.5 19.273438 12.6875 19.585938 13.1875 19.488281 C 17.136719 18.164062 20 14.414062 20 10 C 20 4.476562 15.523438 0 10 0 Z M 10 0 "/>
</g>
</svg>
