<?xml version="1.0" encoding="UTF-8"?>
<svg xmlns="http://www.w3.org/2000/svg" xmlns:xlink="http://www.w3.org/1999/xlink" width="25px" height="25px" viewBox="0 0 25 25" version="1.1">
<g id="surface1">
<path style=" stroke:none;fill-rule:nonzero;fill:rgb(2.352941%,80%,7.843137%);fill-opacity:1;" d="M 11.089844 21.09375 C 11.015625 21.09375 10.945312 21.085938 10.875 21.066406 C 10.328125 20.910156 10 20.359375 10.117188 19.804688 L 12.9375 4.769531 C 12.988281 4.480469 13.15625 4.222656 13.402344 4.058594 C 13.617188 3.917969 13.878906 3.871094 14.125 3.929688 C 14.667969 4.089844 15 4.640625 14.882812 5.195312 L 12.058594 20.234375 C 12.007812 20.523438 11.84375 20.78125 11.597656 20.945312 C 11.445312 21.042969 11.269531 21.09375 11.089844 21.09375 Z M 11.089844 21.09375 "/>
<path style=" stroke:none;fill-rule:nonzero;fill:rgb(2.352941%,80%,7.843137%);fill-opacity:1;" d="M 16.746094 18.964844 L 16.675781 18.964844 C 16.398438 18.9375 16.144531 18.796875 15.980469 18.574219 C 15.648438 18.121094 15.691406 17.492188 16.085938 17.09375 L 20.9375 12.347656 L 16.105469 7.933594 C 15.699219 7.542969 15.640625 6.917969 15.960938 6.457031 C 16.117188 6.226562 16.367188 6.074219 16.648438 6.042969 C 16.917969 6.011719 17.1875 6.105469 17.386719 6.289062 L 23.085938 11.5 C 23.488281 11.886719 23.554688 12.511719 23.234375 12.972656 C 23.191406 13.035156 23.140625 13.09375 23.085938 13.144531 L 17.410156 18.691406 C 17.234375 18.863281 16.996094 18.960938 16.746094 18.964844 Z M 16.746094 18.964844 "/>
<path style=" stroke:none;fill-rule:nonzero;fill:rgb(2.352941%,80%,7.843137%);fill-opacity:1;" d="M 8.253906 18.964844 C 8.003906 18.964844 7.761719 18.863281 7.585938 18.6875 L 1.90625 13.140625 C 1.851562 13.09375 1.804688 13.039062 1.765625 12.976562 C 1.445312 12.519531 1.507812 11.894531 1.910156 11.503906 L 7.613281 6.292969 C 7.808594 6.105469 8.078125 6.015625 8.347656 6.046875 C 8.625 6.078125 8.878906 6.230469 9.039062 6.460938 C 9.359375 6.921875 9.300781 7.546875 8.894531 7.9375 L 4.0625 12.351562 L 8.914062 17.09375 C 9.3125 17.492188 9.355469 18.121094 9.019531 18.570312 C 8.855469 18.796875 8.601562 18.9375 8.320312 18.960938 C 8.296875 18.964844 8.277344 18.964844 8.253906 18.964844 Z M 8.253906 18.964844 "/>
</g>
</svg>
