<?xml version="1.0" encoding="UTF-8"?>
<svg xmlns="http://www.w3.org/2000/svg" xmlns:xlink="http://www.w3.org/1999/xlink" width="20px" height="20px" viewBox="0 0 20 20" version="1.1">
<g id="surface1">
<path style=" stroke:none;fill-rule:nonzero;fill:rgb(2.745098%,6.666667%,15.686275%);fill-opacity:1;" d="M 10.445312 0.109375 C 10.839844 0.304688 11.21875 0.519531 11.597656 0.742188 C 11.710938 0.808594 11.820312 0.871094 11.9375 0.9375 C 12.292969 1.144531 12.644531 1.347656 13 1.554688 C 13.113281 1.621094 13.226562 1.6875 13.34375 1.753906 C 13.789062 2.015625 14.234375 2.273438 14.679688 2.535156 C 15.695312 3.128906 16.714844 3.714844 17.738281 4.296875 C 18.085938 4.492188 18.433594 4.691406 18.777344 4.890625 C 18.777344 8.261719 18.777344 11.636719 18.777344 15.109375 C 15.890625 16.777344 15.890625 16.777344 15.070312 17.25 C 14.960938 17.3125 14.855469 17.375 14.742188 17.4375 C 14.519531 17.566406 14.300781 17.691406 14.078125 17.820312 C 13.464844 18.171875 12.855469 18.53125 12.25 18.894531 C 12.128906 18.96875 12.007812 19.039062 11.882812 19.113281 C 11.652344 19.253906 11.421875 19.390625 11.191406 19.53125 C 11.089844 19.59375 10.988281 19.65625 10.878906 19.71875 C 10.746094 19.800781 10.746094 19.800781 10.609375 19.882812 C 10.265625 20.027344 10.035156 20.039062 9.667969 20 C 9.371094 19.875 9.371094 19.875 9.070312 19.695312 C 8.957031 19.628906 8.84375 19.5625 8.726562 19.492188 C 8.605469 19.417969 8.484375 19.347656 8.359375 19.269531 C 8.234375 19.195312 8.105469 19.121094 7.976562 19.042969 C 7.710938 18.886719 7.441406 18.726562 7.175781 18.570312 C 6.554688 18.199219 5.925781 17.839844 5.296875 17.480469 C 5.179688 17.410156 5.0625 17.34375 4.9375 17.273438 C 4.359375 16.9375 3.78125 16.605469 3.199219 16.277344 C 3.09375 16.214844 2.984375 16.15625 2.875 16.09375 C 2.671875 15.976562 2.46875 15.863281 2.265625 15.75 C 2.179688 15.703125 2.089844 15.652344 1.996094 15.597656 C 1.917969 15.554688 1.839844 15.511719 1.761719 15.46875 C 1.542969 15.328125 1.390625 15.199219 1.222656 15 C 1.191406 14.671875 1.179688 14.363281 1.183594 14.035156 C 1.183594 13.933594 1.183594 13.835938 1.183594 13.734375 C 1.183594 13.410156 1.1875 13.082031 1.191406 12.753906 C 1.191406 12.53125 1.191406 12.304688 1.191406 12.078125 C 1.191406 11.480469 1.195312 10.886719 1.199219 10.289062 C 1.203125 9.683594 1.203125 9.074219 1.207031 8.46875 C 1.210938 7.273438 1.214844 6.082031 1.222656 4.890625 C 1.34375 4.820312 1.464844 4.753906 1.589844 4.683594 C 1.75 4.59375 1.910156 4.503906 2.070312 4.414062 C 2.148438 4.367188 2.230469 4.324219 2.3125 4.277344 C 2.960938 3.910156 3.605469 3.539062 4.25 3.160156 C 5.273438 2.5625 6.296875 1.96875 7.328125 1.382812 C 7.390625 1.34375 7.457031 1.308594 7.523438 1.269531 C 7.832031 1.09375 8.140625 0.917969 8.449219 0.742188 C 8.65625 0.625 8.863281 0.503906 9.066406 0.375 C 9.867188 -0.109375 9.867188 -0.109375 10.445312 0.109375 Z M 10.445312 0.109375 "/>
<path style=" stroke:none;fill-rule:nonzero;fill:rgb(28.627451%,62.745098%,92.156863%);fill-opacity:1;" d="M 10.445312 0.109375 C 10.839844 0.304688 11.21875 0.519531 11.597656 0.742188 C 11.710938 0.808594 11.820312 0.871094 11.9375 0.9375 C 12.292969 1.144531 12.644531 1.347656 13 1.554688 C 13.113281 1.621094 13.226562 1.6875 13.34375 1.753906 C 13.789062 2.015625 14.234375 2.273438 14.679688 2.535156 C 15.695312 3.128906 16.714844 3.714844 17.738281 4.296875 C 18.085938 4.492188 18.433594 4.691406 18.777344 4.890625 C 18.777344 8.261719 18.777344 11.636719 18.777344 15.109375 C 15.890625 16.777344 15.890625 16.777344 15.070312 17.25 C 14.960938 17.3125 14.855469 17.375 14.742188 17.4375 C 14.519531 17.566406 14.300781 17.691406 14.078125 17.820312 C 13.464844 18.171875 12.855469 18.53125 12.25 18.894531 C 12.128906 18.96875 12.007812 19.039062 11.882812 19.113281 C 11.652344 19.253906 11.421875 19.390625 11.191406 19.53125 C 11.089844 19.59375 10.988281 19.65625 10.878906 19.71875 C 10.746094 19.800781 10.746094 19.800781 10.609375 19.882812 C 10.265625 20.027344 10.035156 20.039062 9.667969 20 C 9.371094 19.875 9.371094 19.875 9.070312 19.695312 C 8.957031 19.628906 8.84375 19.5625 8.726562 19.492188 C 8.605469 19.417969 8.484375 19.347656 8.359375 19.269531 C 8.234375 19.195312 8.105469 19.121094 7.976562 19.042969 C 7.710938 18.886719 7.441406 18.726562 7.175781 18.570312 C 6.554688 18.199219 5.925781 17.839844 5.296875 17.480469 C 5.179688 17.410156 5.0625 17.34375 4.9375 17.273438 C 4.359375 16.9375 3.78125 16.605469 3.199219 16.277344 C 3.09375 16.214844 2.984375 16.15625 2.875 16.09375 C 2.671875 15.976562 2.46875 15.863281 2.265625 15.75 C 2.179688 15.703125 2.089844 15.652344 1.996094 15.597656 C 1.917969 15.554688 1.839844 15.511719 1.761719 15.46875 C 1.542969 15.328125 1.390625 15.199219 1.222656 15 C 1.191406 14.671875 1.179688 14.363281 1.183594 14.035156 C 1.183594 13.933594 1.183594 13.835938 1.183594 13.734375 C 1.183594 13.410156 1.1875 13.082031 1.191406 12.753906 C 1.191406 12.53125 1.191406 12.304688 1.191406 12.078125 C 1.191406 11.480469 1.195312 10.886719 1.199219 10.289062 C 1.203125 9.683594 1.203125 9.074219 1.207031 8.46875 C 1.210938 7.273438 1.214844 6.082031 1.222656 4.890625 C 1.34375 4.820312 1.464844 4.753906 1.589844 4.683594 C 1.75 4.59375 1.910156 4.503906 2.070312 4.414062 C 2.148438 4.367188 2.230469 4.324219 2.3125 4.277344 C 2.960938 3.910156 3.605469 3.539062 4.25 3.160156 C 5.273438 2.5625 6.296875 1.96875 7.328125 1.382812 C 7.390625 1.34375 7.457031 1.308594 7.523438 1.269531 C 7.832031 1.09375 8.140625 0.917969 8.449219 0.742188 C 8.65625 0.625 8.863281 0.503906 9.066406 0.375 C 9.867188 -0.109375 9.867188 -0.109375 10.445312 0.109375 Z M 9.152344 2.070312 C 9.074219 2.113281 8.996094 2.15625 8.917969 2.203125 C 7.386719 3.070312 7.386719 3.070312 5.882812 3.980469 C 5.527344 4.191406 5.164062 4.328125 4.773438 4.46875 C 3.523438 4.96875 3.523438 4.96875 2.691406 5.976562 C 2.347656 7.082031 2.414062 8.289062 2.453125 9.429688 C 2.472656 9.917969 2.46875 10.402344 2.457031 10.890625 C 2.367188 12.792969 2.367188 12.792969 2.992188 14.523438 C 3.507812 14.988281 4.085938 15.246094 4.738281 15.464844 C 5.066406 15.578125 5.347656 15.742188 5.640625 15.925781 C 5.8125 16.023438 5.980469 16.121094 6.152344 16.214844 C 6.777344 16.566406 7.394531 16.921875 8.003906 17.296875 C 8.113281 17.363281 8.226562 17.433594 8.339844 17.5 C 8.554688 17.632812 8.765625 17.765625 8.976562 17.898438 C 9.125 17.984375 9.125 17.984375 9.269531 18.074219 C 9.355469 18.128906 9.441406 18.179688 9.527344 18.234375 C 9.851562 18.363281 10 18.332031 10.332031 18.222656 C 10.558594 18.109375 10.777344 17.992188 10.992188 17.867188 C 11.054688 17.828125 11.117188 17.792969 11.183594 17.757812 C 11.386719 17.640625 11.589844 17.519531 11.792969 17.402344 C 11.933594 17.320312 12.074219 17.238281 12.214844 17.160156 C 12.496094 16.996094 12.773438 16.832031 13.054688 16.671875 C 13.390625 16.476562 13.726562 16.28125 14.058594 16.089844 C 14.664062 15.746094 14.664062 15.746094 15.257812 15.390625 C 15.492188 15.257812 15.71875 15.148438 15.964844 15.042969 C 16.429688 14.824219 16.871094 14.601562 17.222656 14.222656 C 17.453125 13.570312 17.417969 12.960938 17.386719 12.277344 C 17.382812 12.089844 17.378906 11.902344 17.378906 11.714844 C 17.371094 11.222656 17.355469 10.730469 17.335938 10.238281 C 17.320312 9.738281 17.3125 9.234375 17.304688 8.730469 C 17.285156 7.746094 17.257812 6.761719 17.222656 5.777344 C 16.773438 5.519531 16.324219 5.257812 15.875 5 C 15.808594 4.960938 15.742188 4.921875 15.671875 4.882812 C 14.9375 4.460938 14.203125 4.035156 13.464844 3.609375 C 13.351562 3.542969 13.234375 3.476562 13.117188 3.410156 C 12.894531 3.28125 12.671875 3.152344 12.449219 3.023438 C 12.335938 2.957031 12.222656 2.894531 12.105469 2.828125 C 11.941406 2.734375 11.941406 2.734375 11.777344 2.636719 C 11.542969 2.5 11.304688 2.363281 11.070312 2.222656 C 10.953125 2.152344 10.832031 2.082031 10.707031 2.007812 C 10.542969 1.910156 10.542969 1.910156 10.378906 1.808594 C 9.878906 1.542969 9.597656 1.8125 9.152344 2.070312 Z M 9.152344 2.070312 "/>
<path style=" stroke:none;fill-rule:nonzero;fill:rgb(27.45098%,63.921569%,92.941176%);fill-opacity:1;" d="M 5.667969 5.222656 C 8.527344 5.222656 11.386719 5.222656 14.332031 5.222656 C 14.332031 5.773438 14.332031 6.320312 14.332031 6.890625 C 13.234375 6.890625 12.132812 6.890625 11 6.890625 C 11 9.96875 11 13.050781 11 16.222656 C 10.339844 16.222656 9.679688 16.222656 9 16.222656 C 9 13.140625 9 10.0625 9 6.890625 C 7.898438 6.890625 6.800781 6.890625 5.667969 6.890625 C 5.667969 6.339844 5.667969 5.789062 5.667969 5.222656 Z M 5.667969 5.222656 "/>
<path style=" stroke:none;fill-rule:nonzero;fill:rgb(40%,69.803922%,94.509804%);fill-opacity:1;" d="M 2 4.445312 C 2.074219 4.480469 2.148438 4.519531 2.222656 4.554688 C 2.113281 4.628906 2.003906 4.699219 1.894531 4.773438 C 1.683594 4.949219 1.570312 5.054688 1.492188 5.320312 C 1.472656 5.578125 1.472656 5.824219 1.480469 6.082031 C 1.480469 6.226562 1.480469 6.226562 1.480469 6.375 C 1.480469 6.691406 1.484375 7.011719 1.492188 7.328125 C 1.492188 7.550781 1.492188 7.769531 1.492188 7.992188 C 1.496094 8.570312 1.503906 9.152344 1.511719 9.734375 C 1.515625 10.328125 1.519531 10.917969 1.523438 11.511719 C 1.53125 12.675781 1.542969 13.835938 1.554688 15 C 1.703125 15.074219 1.847656 15.148438 2 15.222656 C 2 15.296875 2 15.367188 2 15.445312 C 1.675781 15.324219 1.46875 15.246094 1.222656 15 C 1.203125 14.679688 1.195312 14.367188 1.195312 14.046875 C 1.195312 13.949219 1.195312 13.847656 1.195312 13.746094 C 1.195312 13.421875 1.199219 13.09375 1.199219 12.765625 C 1.199219 12.539062 1.203125 12.3125 1.203125 12.085938 C 1.203125 11.492188 1.203125 10.894531 1.207031 10.296875 C 1.210938 9.6875 1.210938 9.082031 1.210938 8.472656 C 1.214844 7.277344 1.21875 6.082031 1.222656 4.890625 C 1.808594 4.53125 1.808594 4.53125 2 4.445312 Z M 2 4.445312 "/>
<path style=" stroke:none;fill-rule:nonzero;fill:rgb(47.058824%,76.470588%,96.470588%);fill-opacity:1;" d="M 10.445312 0.109375 C 10.839844 0.304688 11.21875 0.519531 11.597656 0.742188 C 11.707031 0.808594 11.820312 0.871094 11.933594 0.9375 C 12.289062 1.140625 12.644531 1.347656 13 1.554688 C 13.121094 1.625 13.238281 1.695312 13.363281 1.765625 C 13.828125 2.039062 14.296875 2.308594 14.761719 2.582031 C 15.390625 2.953125 16.023438 3.316406 16.667969 3.667969 C 16.332031 3.777344 16.332031 3.777344 16.085938 3.675781 C 15.941406 3.597656 15.941406 3.597656 15.796875 3.515625 C 15.691406 3.457031 15.585938 3.402344 15.476562 3.339844 C 15.367188 3.277344 15.257812 3.214844 15.144531 3.152344 C 15.039062 3.09375 14.929688 3.035156 14.820312 2.972656 C 14.277344 2.671875 13.746094 2.359375 13.21875 2.027344 C 12.800781 1.761719 12.367188 1.519531 11.9375 1.269531 C 11.847656 1.21875 11.757812 1.167969 11.664062 1.113281 C 11.488281 1.011719 11.3125 0.910156 11.132812 0.808594 C 10.976562 0.71875 10.824219 0.621094 10.671875 0.523438 C 10.339844 0.304688 10.171875 0.210938 9.773438 0.28125 C 9.300781 0.515625 8.859375 0.789062 8.410156 1.070312 C 8.261719 1.144531 8.261719 1.144531 8.109375 1.222656 C 8 1.1875 7.890625 1.148438 7.777344 1.109375 C 8.09375 0.921875 8.414062 0.734375 8.734375 0.546875 C 8.824219 0.496094 8.914062 0.441406 9.007812 0.386719 C 9.867188 -0.109375 9.867188 -0.109375 10.445312 0.109375 Z M 10.445312 0.109375 "/>
</g>
</svg>
