<?xml version="1.0" encoding="UTF-8"?>
<svg xmlns="http://www.w3.org/2000/svg" xmlns:xlink="http://www.w3.org/1999/xlink" width="20px" height="20px" viewBox="0 0 20 20" version="1.1">
<g id="surface1">
<path style=" stroke:none;fill-rule:nonzero;fill:rgb(100%,0%,0%);fill-opacity:1;" d="M 18.953125 5.472656 C 18.738281 4.664062 18.105469 4.027344 17.300781 3.8125 C 15.84375 3.417969 10 3.417969 10 3.417969 C 10 3.417969 4.15625 3.417969 2.699219 3.8125 C 1.894531 4.027344 1.261719 4.664062 1.046875 5.472656 C 0.65625 6.941406 0.65625 10 0.65625 10 C 0.65625 10 0.65625 13.058594 1.046875 14.527344 C 1.261719 15.335938 1.894531 15.972656 2.699219 16.1875 C 4.15625 16.582031 10 16.582031 10 16.582031 C 10 16.582031 15.84375 16.582031 17.300781 16.1875 C 18.105469 15.972656 18.738281 15.335938 18.953125 14.527344 C 19.34375 13.058594 19.34375 10 19.34375 10 C 19.34375 10 19.34375 6.941406 18.953125 5.472656 Z M 18.953125 5.472656 "/>
<path style=" stroke:none;fill-rule:nonzero;fill:rgb(94.509804%,94.509804%,94.509804%);fill-opacity:1;" d="M 8.058594 7.175781 L 8.058594 12.824219 L 13.023438 10 Z M 8.058594 7.175781 "/>
</g>
</svg>
